<svg data-v-423bf9ae="" xmlns="http://www.w3.org/2000/svg" viewBox="0 0 562.6457414690254 60" class="font"><!----><!----><!----><g data-v-423bf9ae="" id="4415b911-e82b-4cb2-a68f-eb0e63f08f2c" fill="white" transform="matrix(5.550416555434064,0,0,5.550416555434064,-4.662352598383791,-21.424608168198887)"><path d="M10.00 11.14L10.00 11.14Q10.23 11.14 10.23 11.79L10.23 11.79Q10.23 12.14 9.94 12.63Q9.65 13.13 9.18 13.54Q8.71 13.96 8.13 14.22Q7.56 14.49 7.04 14.49Q6.52 14.49 6.23 14.29Q5.94 14.10 5.77 13.76L5.77 13.76Q5.53 13.29 5.38 11.95Q5.22 10.61 5.07 10.08L5.07 10.08Q4.70 10.01 4.43 9.79Q4.16 9.58 4.16 9.26Q4.16 8.95 4.45 8.81Q4.73 8.67 5.10 8.67Q5.47 8.67 5.77 8.85L5.77 8.85Q6.16 8.53 6.41 8.09Q6.65 7.64 6.65 6.90Q6.65 6.15 6.15 5.70Q5.64 5.25 4.67 5.25Q3.70 5.25 3.18 5.40Q2.66 5.56 2.29 5.74Q1.92 5.92 1.63 6.08Q1.34 6.23 1.09 6.23Q0.84 6.23 0.84 6.07Q0.84 5.91 1.11 5.54Q1.37 5.18 1.89 4.82L1.89 4.82Q3.19 3.91 4.83 3.91Q6.47 3.92 7.53 4.54L7.53 4.54Q8.78 5.26 8.78 6.72L8.78 6.72Q8.79 7.92 8.15 8.72Q7.50 9.52 6.55 9.87L6.55 9.87Q6.76 10.33 6.90 10.86Q7.03 11.40 7.15 11.84Q7.28 12.29 7.44 12.59Q7.60 12.88 7.83 12.88Q8.06 12.88 8.39 12.61Q8.72 12.33 9.04 12.01Q9.37 11.69 9.63 11.42Q9.88 11.14 10.00 11.14ZM3.91 6.10L3.91 6.10Q4.09 6.10 4.09 6.58Q4.09 7.06 4.03 7.48L4.03 7.48Q3.91 8.29 3.71 8.99L3.71 8.99Q3.21 10.89 3.21 11.21L3.21 11.21L3.21 13.27Q3.21 14.03 2.63 14.31L2.63 14.31Q2.37 14.43 2.12 14.55Q1.88 14.66 1.57 14.66L1.57 14.66Q0.98 14.66 0.98 13.31Q0.98 11.96 1.61 9.90Q2.24 7.84 2.93 6.76L2.93 6.76Q3.07 6.55 3.33 6.33Q3.60 6.10 3.91 6.10ZM12.80 12.92L12.80 12.92Q13.89 12.92 14.91 12.05L14.91 12.05Q15.29 11.73 15.53 11.46Q15.76 11.19 15.89 11.19L15.89 11.19Q16.09 11.19 16.09 11.58Q16.09 11.97 15.88 12.45Q15.67 12.94 15.18 13.40L15.18 13.40Q13.97 14.53 11.87 14.53L11.87 14.53Q10.21 14.53 9.60 13.33L9.60 13.33Q9.39 12.91 9.39 12.12Q9.39 11.34 9.70 10.49Q10.01 9.65 10.52 9.03Q11.03 8.41 11.70 8.07Q12.38 7.73 13.14 7.73Q13.90 7.73 14.32 8.11Q14.73 8.48 14.73 9.09Q14.73 9.69 14.43 10.07Q14.13 10.46 13.65 10.72Q13.17 10.98 12.59 11.18Q12.01 11.38 11.45 11.63L11.45 11.63L11.45 11.98Q11.47 12.49 11.87 12.70Q12.28 12.91 12.80 12.92ZM12.56 8.97L12.56 8.97Q11.83 8.97 11.55 10.67L11.55 10.67Q11.84 10.47 12.10 10.32Q12.36 10.16 12.56 10.02L12.56 10.02Q12.98 9.72 12.99 9.32L12.99 9.32Q12.99 8.97 12.56 8.97ZM23.06 10.19L23.06 10.19Q23.06 9.73 22.53 9.73L22.53 9.73Q22.16 9.73 21.71 10.44Q21.27 11.14 21.07 11.96L21.07 11.96L21.07 11.98Q21.07 12.46 21.22 12.96Q21.36 13.47 21.36 13.66L21.36 13.66Q21.36 14.14 20.17 14.60L20.17 14.60Q19.99 14.67 19.85 14.67L19.85 14.67Q19.50 14.67 19.37 14.31Q19.24 13.94 19.24 13.32Q19.24 12.70 19.27 12.14Q19.31 11.59 19.34 11.12Q19.38 10.65 19.41 10.30Q19.45 9.94 19.45 9.72L19.45 9.72Q19.45 9.24 19.01 9.24Q18.58 9.24 18.00 10.25Q17.43 11.27 17.43 11.87Q17.43 12.46 17.58 12.96Q17.72 13.47 17.72 13.66L17.72 13.66Q17.72 14.14 16.53 14.60L16.53 14.60Q16.35 14.67 16.21 14.67L16.21 14.67Q15.86 14.67 15.73 14.31Q15.60 13.94 15.60 13.19L15.60 13.19Q15.60 11.20 15.75 10.32L15.75 10.32Q15.96 9.02 16.70 7.85L16.70 7.85Q16.95 7.46 17.25 7.46L17.25 7.46Q17.71 7.46 18.10 8.22L18.10 8.22Q18.21 8.41 18.27 8.58L18.27 8.58Q18.94 7.74 19.85 7.74L19.85 7.74Q20.45 7.74 20.93 8.14Q21.41 8.54 21.41 9.14L21.41 9.14L21.41 9.30Q22.26 8.23 23.49 8.23L23.49 8.23Q24.25 8.23 24.64 8.62Q25.03 9.02 25.03 9.59Q25.03 10.16 24.95 10.63Q24.86 11.09 24.76 11.49Q24.65 11.90 24.57 12.21Q24.49 12.53 24.49 12.71Q24.49 12.88 24.60 12.88L24.60 12.88Q24.81 12.88 25.12 12.61Q25.42 12.35 25.73 12.03Q26.04 11.72 26.30 11.45Q26.56 11.19 26.66 11.19L26.66 11.19Q26.85 11.19 26.85 11.66L26.85 11.66Q26.85 12.64 25.87 13.57Q24.88 14.49 23.76 14.49L23.76 14.49Q22.75 14.49 22.75 12.66L22.75 12.66Q22.75 12.19 22.90 11.38Q23.06 10.57 23.06 10.19ZM28.01 7.46L28.01 7.46Q28.52 7.46 28.97 8.43L28.97 8.43Q29.62 7.74 30.60 7.74Q31.57 7.74 32.06 8.17Q32.55 8.60 32.55 9.37Q32.55 10.15 32.35 10.95Q32.14 11.75 32.05 12.09Q31.96 12.43 31.96 12.66Q31.96 12.88 32.12 12.88L32.12 12.88Q32.33 12.88 32.63 12.61Q32.94 12.35 33.25 12.03Q33.56 11.72 33.82 11.45Q34.08 11.19 34.17 11.19L34.17 11.19Q34.37 11.19 34.37 11.66L34.37 11.66Q34.37 12.64 33.40 13.55L33.40 13.55Q31.78 14.50 31.33 14.50L31.33 14.50Q31.29 14.50 31.28 14.49L31.28 14.49Q30.16 14.49 30.16 12.70L30.16 12.70Q30.16 11.93 30.30 11.28Q30.45 10.64 30.52 10.35Q30.59 10.05 30.59 9.74L30.59 9.74Q30.59 9.24 30.01 9.24Q29.43 9.24 28.90 10.10Q28.38 10.96 28.20 11.89L28.20 11.89L28.20 11.98Q28.20 12.46 28.34 12.96Q28.49 13.47 28.49 13.66L28.49 13.66Q28.49 14.14 27.30 14.60L27.30 14.60Q27.12 14.67 26.98 14.67L26.98 14.67Q26.63 14.67 26.50 14.31Q26.36 13.94 26.36 13.17L26.36 13.17Q26.36 11.19 26.52 10.30L26.52 10.30Q26.73 8.99 27.47 7.85L27.47 7.85Q27.72 7.46 28.01 7.46ZM42.27 11.14L42.27 11.14Q42.52 11.14 42.52 11.79L42.52 11.79Q42.52 12.14 42.22 12.63Q41.93 13.13 41.46 13.54Q40.99 13.96 40.42 14.22Q39.84 14.49 39.30 14.49L39.30 14.49Q38.56 14.49 38.30 13.19L38.30 13.19Q37.94 13.79 37.35 14.18Q36.76 14.56 35.78 14.56Q34.79 14.56 34.19 13.94Q33.59 13.33 33.60 12.45L33.60 12.45Q33.60 10.07 35.18 8.69L35.18 8.69Q35.85 8.12 36.44 7.94Q37.02 7.76 37.66 7.76Q38.30 7.76 38.71 7.98L38.71 7.98Q38.91 7.57 39.16 7.57L39.16 7.57Q39.65 7.57 40.09 8.00Q40.53 8.43 40.53 8.81L40.53 8.81Q40.33 9.27 39.96 9.91L39.96 9.91Q39.84 10.56 39.84 11.72Q39.84 12.88 40.14 12.88L40.14 12.88Q40.50 12.88 41.90 11.42L41.90 11.42Q42.15 11.14 42.27 11.14ZM35.66 11.98L35.66 11.98Q35.66 13.06 36.46 13.06L36.46 13.06Q37.31 13.05 37.87 12.15L37.87 12.15Q38.07 11.84 38.19 11.40L38.19 11.40Q38.19 9.83 38.47 8.71L38.47 8.71Q37.34 8.93 36.50 9.80Q35.66 10.67 35.66 11.98ZM43.68 7.46L43.68 7.46Q44.18 7.46 44.63 8.43L44.63 8.43Q45.29 7.74 46.26 7.74Q47.24 7.74 47.73 8.17Q48.22 8.60 48.22 9.37Q48.22 10.15 48.01 10.95Q47.81 11.75 47.72 12.09Q47.63 12.43 47.63 12.66Q47.63 12.88 47.78 12.88L47.78 12.88Q47.99 12.88 48.30 12.61Q48.61 12.35 48.92 12.03Q49.22 11.72 49.48 11.45Q49.74 11.19 49.84 11.19L49.84 11.19Q50.04 11.19 50.04 11.66L50.04 11.66Q50.04 12.64 49.07 13.55L49.07 13.55Q47.45 14.50 47.00 14.50L47.00 14.50Q46.96 14.50 46.94 14.49L46.94 14.49Q45.82 14.49 45.82 12.70L45.82 12.70Q45.82 11.93 45.97 11.28Q46.12 10.64 46.19 10.35Q46.26 10.05 46.26 9.74L46.26 9.74Q46.26 9.24 45.67 9.24Q45.09 9.24 44.57 10.10Q44.04 10.96 43.86 11.89L43.86 11.89L43.86 11.98Q43.86 12.46 44.01 12.96Q44.16 13.47 44.16 13.66L44.16 13.66Q44.16 14.14 42.97 14.60L42.97 14.60Q42.78 14.67 42.64 14.67L42.64 14.67Q42.29 14.67 42.16 14.31Q42.03 13.94 42.03 13.17L42.03 13.17Q42.03 11.19 42.18 10.30L42.18 10.30Q42.39 8.99 43.13 7.85L43.13 7.85Q43.39 7.46 43.68 7.46ZM49.96 13.69Q49.80 13.31 49.73 12.82Q49.66 12.32 49.66 11.42Q49.66 10.53 49.99 9.00L49.99 9.00L49.36 9.00Q49.20 9.00 49.20 8.86L49.20 8.86Q49.20 8.53 49.26 8.31Q49.32 8.09 49.56 7.81L49.56 7.81L49.90 7.81Q50.09 7.81 50.32 7.80L50.32 7.80Q50.99 5.64 51.69 5.64L51.69 5.64Q52.25 5.66 52.47 6.36L52.47 6.36Q52.53 6.55 52.60 6.78L52.60 6.78L52.02 7.78Q53.00 7.81 53.26 7.81Q53.52 7.81 53.54 7.86Q53.56 7.91 53.56 8.01L53.56 8.01Q53.56 8.26 53.44 8.64Q53.33 9.02 53.17 9.00L53.17 9.00L51.77 8.93Q51.48 10.64 51.48 11.76Q51.48 12.88 51.80 12.88L51.80 12.88Q52.07 12.88 52.77 12.44Q53.47 12.00 53.77 11.59Q54.08 11.19 54.28 11.19L54.28 11.19Q54.47 11.19 54.47 11.66Q54.47 12.14 54.14 12.63Q53.80 13.13 53.29 13.54Q52.78 13.96 52.16 14.22Q51.53 14.49 51.07 14.49Q50.61 14.49 50.36 14.27Q50.12 14.06 49.96 13.69ZM66.40 12.18L66.40 12.18Q66.77 11.91 67.06 11.53Q67.35 11.14 67.56 11.14Q67.76 11.14 67.76 11.75Q67.76 12.36 67.42 12.90Q67.07 13.44 66.51 13.80L66.51 13.80Q65.37 14.56 63.80 14.56L63.80 14.56Q61.89 14.56 60.84 13.61Q59.79 12.66 59.79 10.96L59.79 10.96Q59.79 8.88 60.80 7L60.80 7Q61.14 6.38 61.56 5.87L61.56 5.87Q61.24 5.49 61.05 5.08Q60.86 4.66 60.86 4.45L60.86 4.45Q60.86 4.07 61.14 4.07L61.14 4.07Q61.33 4.09 61.59 4.34L61.59 4.34L62.02 4.76Q62.19 4.93 62.37 5.04L62.37 5.04Q63.76 3.86 65.36 3.86Q66.96 3.86 67.44 4.76L67.44 4.76Q67.61 5.10 67.61 5.59L67.61 5.59Q67.61 6.33 66.96 6.83Q66.32 7.34 65.23 7.34Q64.15 7.34 62.99 6.89L62.99 6.89Q61.99 8.58 61.99 10.43L61.99 10.43Q61.99 12.99 64.04 12.99L64.04 12.99Q65.30 12.99 66.40 12.18ZM63.66 6.02L63.66 6.02Q64.37 6.26 65.21 6.26Q66.05 6.26 66.05 5.80L66.05 5.80Q66.05 5.25 65.37 5.25L65.37 5.25Q64.43 5.25 63.66 6.02ZM71.72 9.74L71.72 9.74Q71.72 9.24 71.13 9.24Q70.53 9.24 69.96 10.16Q69.38 11.07 69.24 12.03L69.24 12.03Q69.27 12.35 69.30 12.67Q69.33 12.99 69.33 13.30L69.33 13.30Q69.33 14.04 68.84 14.31L68.84 14.31Q68.61 14.43 68.41 14.55Q68.21 14.66 67.94 14.66Q67.68 14.66 67.47 14.30Q67.27 13.94 67.27 13.19L67.27 13.19Q67.27 11.07 67.58 9.52L67.58 9.52Q68.05 7.11 69.47 4.37L69.47 4.37Q69.66 3.99 70.04 4.00Q70.42 4.00 70.66 4.52Q70.90 5.04 70.89 5.39Q70.88 5.74 70.78 6.07Q70.67 6.40 70.51 6.71Q70.35 7.03 70.15 7.36Q69.94 7.69 69.75 8.06L69.75 8.06L69.54 9.07Q70.08 8.16 71.01 7.85L71.01 7.85Q71.34 7.74 71.75 7.74L71.75 7.74Q72.70 7.74 73.19 8.17Q73.68 8.60 73.68 9.37Q73.68 10.15 73.48 10.95Q73.28 11.75 73.19 12.09Q73.09 12.43 73.09 12.66Q73.09 12.88 73.25 12.88L73.25 12.88Q73.46 12.88 73.77 12.61Q74.07 12.35 74.38 12.03Q74.69 11.72 74.95 11.45Q75.21 11.19 75.31 11.19L75.31 11.19Q75.50 11.19 75.50 11.66L75.50 11.66Q75.50 12.64 74.54 13.55L74.54 13.55Q72.91 14.50 72.46 14.50L72.46 14.50Q72.42 14.50 72.41 14.49L72.41 14.49Q71.29 14.49 71.29 12.70L71.29 12.70Q71.29 11.93 71.44 11.28Q71.58 10.64 71.65 10.35Q71.72 10.05 71.72 9.74ZM79.16 8.79L79.16 8.54Q79.16 7.60 80.61 7.60L80.61 7.60Q80.98 7.60 81.07 7.84Q81.16 8.08 81.16 8.57L81.16 8.57Q81.16 9.25 80.85 10.70Q80.54 12.14 80.56 12.64L80.56 12.64Q80.56 12.88 80.71 12.88L80.71 12.88Q80.92 12.88 81.23 12.61Q81.54 12.35 81.84 12.03Q82.15 11.72 82.41 11.45Q82.67 11.19 82.77 11.19L82.77 11.19Q82.96 11.19 82.96 11.66L82.96 11.66Q82.96 12.64 82.00 13.55L82.00 13.55Q80.37 14.50 79.94 14.50L79.94 14.50Q79.90 14.50 79.87 14.49L79.87 14.49Q79.34 14.49 79.12 14.14Q78.90 13.79 78.85 13.26L78.85 13.26Q78.57 13.78 78.08 14.15Q77.59 14.52 76.96 14.52L76.96 14.52Q75.85 14.52 75.26 14.10Q74.66 13.68 74.66 12.85L74.66 12.85Q74.66 12.49 74.77 12.18Q74.87 11.87 75.11 11.42L75.11 11.42L75.52 7.98Q75.95 7.64 76.76 7.64L76.76 7.64Q77.41 7.64 77.49 8.48L77.49 8.48Q77.56 9.17 77.43 9.71Q77.29 10.25 77.07 11.07Q76.85 11.89 76.85 12.52L76.85 12.52Q76.85 13.02 77.48 13.02L77.48 13.02Q78.16 13.02 78.67 11.82L78.67 11.82Q79.06 10.89 79.20 9.76L79.20 9.76Q79.18 9.65 79.18 9.47Q79.17 9.30 79.16 9.13Q79.16 8.96 79.16 8.79L79.16 8.79ZM84.31 12.10L84.31 12.10L84.39 13.80Q84.39 14.14 84.04 14.41Q83.69 14.67 83.09 14.67L83.09 14.67Q82.74 14.67 82.61 14.31Q82.47 13.94 82.47 13.24L82.47 13.24Q82.47 11.77 82.62 10.94Q82.77 10.11 83.20 9.25L83.20 9.25Q82.56 8.64 82.56 8.19L82.56 8.19Q82.56 7.25 83.57 7.25L83.57 7.25Q84.08 7.25 84.48 7.80L84.48 7.80Q84.76 8.18 84.88 8.68L84.88 8.68Q85.08 8.75 85.37 8.75L85.37 8.75Q85.78 8.75 86.31 8.48L86.31 8.48L86.67 8.30Q86.84 8.22 86.97 8.22L86.97 8.22Q87.37 8.22 87.78 9.41L87.78 9.41Q87.65 9.95 87.51 10.46Q87.36 10.96 87.16 11.68Q86.97 12.39 86.96 12.63Q86.95 12.88 87.11 12.88L87.11 12.88Q87.32 12.88 87.63 12.61Q87.93 12.35 88.24 12.03Q88.55 11.72 88.81 11.45Q89.07 11.19 89.17 11.19L89.17 11.19Q89.36 11.19 89.36 11.66L89.36 11.66Q89.36 12.63 88.52 13.57Q87.67 14.50 86.58 14.49L86.58 14.49Q85.93 14.49 85.61 13.97Q85.29 13.45 85.27 12.71L85.27 12.71Q85.27 11.24 85.93 9.93L85.93 9.93Q85.62 10.05 85.24 10.05Q84.85 10.05 84.69 10.02L84.69 10.02Q84.56 10.56 84.43 11.10Q84.31 11.63 84.31 12.10ZM94.22 11.14L94.22 11.14Q94.47 11.14 94.47 11.57Q94.47 12.00 94.26 12.49Q94.04 12.98 93.60 13.43Q93.16 13.89 92.47 14.21Q91.78 14.53 90.85 14.53Q89.92 14.53 89.22 13.98Q88.52 13.43 88.52 12.38Q88.52 11.34 88.85 10.49Q89.18 9.65 89.72 9.03Q90.26 8.41 90.94 8.07Q91.63 7.73 92.25 7.73L92.25 7.73Q93.32 7.73 93.32 8.58L93.32 8.58Q93.32 9.07 93.12 9.37Q92.92 9.66 92.71 9.66L92.71 9.66Q92.43 9.66 92.22 9.46Q92.01 9.27 91.76 9.26Q91.50 9.25 91.27 9.51Q91.04 9.76 90.89 10.15L90.89 10.15Q90.58 10.93 90.58 11.98L90.58 11.98Q90.59 12.49 91.04 12.74L91.04 12.74Q91.35 12.91 91.77 12.92Q92.19 12.92 92.58 12.64Q92.96 12.36 93.28 12.03Q93.60 11.70 93.85 11.42Q94.09 11.14 94.22 11.14ZM98.43 9.74L98.43 9.74Q98.43 9.24 97.84 9.24Q97.24 9.24 96.67 10.16Q96.10 11.07 95.96 12.03L95.96 12.03Q95.98 12.35 96.01 12.67Q96.04 12.99 96.04 13.30L96.04 13.30Q96.04 14.04 95.55 14.31L95.55 14.31Q95.33 14.43 95.12 14.55Q94.92 14.66 94.65 14.66Q94.39 14.66 94.19 14.30Q93.98 13.94 93.98 13.19L93.98 13.19Q93.98 11.07 94.29 9.52L94.29 9.52Q94.77 7.11 96.18 4.37L96.18 4.37Q96.38 3.99 96.75 4.00Q97.13 4.00 97.37 4.52Q97.61 5.04 97.60 5.39Q97.59 5.74 97.49 6.07Q97.38 6.40 97.22 6.71Q97.06 7.03 96.86 7.36Q96.66 7.69 96.46 8.06L96.46 8.06L96.25 9.07Q96.80 8.16 97.72 7.85L97.72 7.85Q98.06 7.74 98.46 7.74L98.46 7.74Q99.41 7.74 99.90 8.17Q100.39 8.60 100.39 9.37Q100.39 10.15 100.19 10.95Q99.99 11.75 99.90 12.09Q99.81 12.43 99.81 12.66Q99.81 12.88 99.96 12.88L99.96 12.88Q100.17 12.88 100.48 12.61Q100.79 12.35 101.09 12.03Q101.40 11.72 101.66 11.45Q101.92 11.19 102.02 11.19L102.02 11.19Q102.21 11.19 102.21 11.66L102.21 11.66Q102.21 12.64 101.25 13.55L101.25 13.55Q99.62 14.50 99.18 14.50L99.18 14.50Q99.13 14.50 99.12 14.49L99.12 14.49Q98 14.49 98 12.70L98 12.70Q98 11.93 98.15 11.28Q98.29 10.64 98.36 10.35Q98.43 10.05 98.43 9.74Z"></path></g><!----><!----></svg>