<?xml version="1.0" standalone="no"?>
<!DOCTYPE svg PUBLIC "-//W3C//DTD SVG 20010904//EN"
 "http://www.w3.org/TR/2001/REC-SVG-20010904/DTD/svg10.dtd">
<svg version="1.0" xmlns="http://www.w3.org/2000/svg"
 width="1024.000000pt" height="1024.000000pt" viewBox="0 0 1024.000000 1024.000000"
 preserveAspectRatio="xMidYMid meet">
<metadata>
Created by potrace 1.14, written by Peter Selinger 2001-2017
</metadata>
<g transform="translate(0.000000,1024.000000) scale(0.100000,-0.100000)"
fill="#000000" stroke="none">
<path d="M0 5120 l0 -5120 5120 0 5120 0 0 5120 0 5120 -5120 0 -5120 0 0
-5120z m5575 2939 c284 -32 463 -79 710 -184 297 -127 520 -265 741 -457 114
-100 125 -112 119 -137 -9 -38 -26 -81 -34 -81 -3 0 -49 40 -101 88 -120 110
-284 237 -388 300 -147 89 -403 209 -557 260 -364 122 -775 158 -1220 107
-201 -23 -244 -32 -460 -97 -195 -59 -530 -218 -700 -333 -682 -461 -1116
-1208 -1195 -2060 -17 -184 -23 -463 -12 -580 6 -60 9 -111 7 -113 -2 -2 -21
-6 -44 -9 -37 -5 -40 -4 -47 23 -4 16 -8 157 -8 314 -1 300 17 505 65 742 63
315 205 661 391 953 166 261 282 398 493 584 238 211 506 380 780 494 109 45
338 115 460 140 372 78 623 89 1000 46z m10 -263 c244 -39 448 -103 672 -211
280 -135 488 -281 671 -469 l112 -116 0 -72 c1 -99 23 -216 53 -282 32 -69 66
-118 157 -226 42 -50 86 -115 106 -159 19 -41 41 -79 48 -85 24 -19 55 -175
67 -344 7 -89 13 -161 14 -160 13 15 58 212 70 302 17 128 34 188 73 256 63
111 185 241 264 281 36 19 39 19 46 2 4 -10 7 -72 6 -138 -1 -96 -5 -133 -23
-185 -41 -118 -127 -233 -249 -332 -68 -55 -140 -148 -167 -216 -23 -55 -99
-328 -131 -467 -33 -144 -56 -197 -138 -330 -80 -127 -103 -155 -128 -155 -36
0 -21 42 63 175 77 123 118 233 179 480 28 116 60 228 69 250 29 67 33 108 16
187 -9 40 -22 111 -31 158 -11 63 -28 111 -65 185 -145 285 -287 413 -519 470
-183 44 -196 38 -187 -88 13 -166 81 -337 173 -436 28 -31 90 -85 137 -121 48
-35 85 -66 83 -67 -2 -2 -48 17 -103 42 -116 52 -144 55 -167 20 -24 -36 -40
-183 -32 -296 l6 -97 -28 -11 c-103 -42 -489 -67 -673 -42 -189 25 -533 129
-674 204 -57 31 -60 34 -59 70 0 20 1 207 2 415 l2 377 147 -6 c82 -3 214 -4
295 -1 l146 5 6 30 c8 38 8 141 0 161 -3 9 -11 13 -18 8 -6 -4 -140 -9 -298
-12 l-286 -5 5 303 6 302 -96 0 -97 0 0 -304 0 -305 -295 6 -294 6 -10 -27
c-6 -15 -8 -58 -5 -100 l7 -73 186 4 c102 2 236 5 298 6 l112 3 3 -370 c2
-204 2 -373 1 -375 -1 -2 -75 31 -165 74 -215 102 -360 155 -553 204 -249 62
-270 65 -510 65 -243 0 -310 -8 -520 -61 -194 -48 -331 -105 -558 -233 -32
-17 -60 -30 -63 -28 -7 7 113 371 158 478 142 343 454 748 738 959 138 102
164 120 285 193 279 168 616 282 970 328 44 5 94 12 110 14 69 10 485 -3 580
-18z m1743 -622 c50 -67 108 -181 128 -249 34 -115 15 -292 -42 -406 -38 -77
-55 -73 -136 36 -25 33 -55 79 -67 103 -40 78 -49 245 -20 367 13 54 80 195
94 195 5 -1 25 -21 43 -46z m343 -529 c26 -55 24 -91 -6 -120 -13 -14 -28 -25
-34 -25 -12 0 -41 97 -41 137 0 16 7 39 16 51 13 19 18 21 31 10 9 -7 24 -31
34 -53z m-716 -230 c123 -58 235 -194 304 -365 48 -120 101 -327 101 -393 0
-32 -4 -56 -9 -53 -5 3 -34 53 -66 110 -61 112 -133 193 -250 279 -140 104
-214 219 -249 390 -24 114 -26 110 42 86 31 -12 89 -36 127 -54z m573 -104
c-30 -60 -50 -60 -62 0 -12 61 -3 91 42 141 l37 41 3 -68 c2 -54 -1 -76 -20
-114z m-3447 -312 c221 -22 417 -76 626 -170 87 -40 210 -93 273 -119 99 -40
115 -50 117 -71 2 -16 0 -19 -5 -9 -4 8 -18 16 -31 18 -13 2 -21 -1 -17 -6 3
-6 -1 -13 -10 -16 -25 -10 -72 -7 -79 5 -4 6 -14 8 -22 5 -12 -5 -14 0 -11 23
2 17 1 28 -4 25 -4 -3 -27 6 -50 20 -41 25 -38 38 3 16 10 -6 19 -8 19 -6 0 3
-23 16 -52 30 -46 22 -54 23 -68 11 -18 -16 -50 -20 -50 -6 0 14 28 21 34 8 2
-7 5 -4 5 6 1 14 -8 17 -59 17 -33 0 -60 -4 -60 -10 0 -5 -9 -10 -20 -10 -11
0 -20 5 -20 10 0 6 -5 10 -11 10 -15 0 -39 -26 -39 -43 0 -11 -10 -15 -35 -14
-27 1 -35 5 -35 19 0 10 -7 18 -15 18 -30 0 -12 -69 19 -72 11 0 -1 -4 -29 -8
-42 -6 -45 -7 -15 -8 19 -1 50 -11 68 -22 17 -11 32 -18 32 -15 0 3 26 -7 57
-20 31 -14 62 -24 68 -21 7 2 12 -2 12 -8 0 -9 -21 -6 -71 11 -129 44 -248 72
-355 84 -103 11 -167 28 -109 29 38 0 58 10 58 27 0 13 -15 15 -97 11 -63 -3
-98 -8 -101 -16 -2 -8 -36 -13 -100 -14 -86 -1 -90 -2 -37 -7 53 -5 45 -7 -65
-13 -155 -9 -317 -37 -480 -83 -127 -37 -375 -141 -485 -203 -64 -37 -155 -73
-166 -66 -4 2 -4 19 1 37 5 17 14 73 20 122 7 50 16 100 21 111 4 12 36 38 71
58 35 21 97 58 138 82 227 137 448 210 755 247 67 9 310 6 406 -4z m3923 -62
c22 -52 18 -61 -31 -72 l-33 -7 0 60 c0 58 9 74 35 68 6 -2 19 -24 29 -49z
m-957 -222 c66 -59 111 -139 140 -246 25 -96 21 -429 -6 -429 -4 0 -23 35 -41
77 -25 57 -53 98 -108 158 -76 82 -144 185 -167 253 -17 49 -29 208 -21 267
l7 45 69 -36 c38 -19 95 -60 127 -89z m1024 -51 c-18 -125 -88 -261 -174 -341
-58 -53 -147 -104 -264 -151 -54 -22 -124 -51 -155 -66 -32 -14 -58 -22 -58
-18 0 5 14 30 32 58 17 27 53 98 80 159 26 60 63 133 81 163 43 72 132 152
215 193 83 41 234 90 245 80 4 -4 3 -39 -2 -77z m-3978 49 c-7 -2 -21 -2 -30
0 -10 3 -4 5 12 5 17 0 24 -2 18 -5z m703 -173 c32 -11 66 -22 75 -24 58 -14
106 -31 120 -43 12 -10 18 -10 27 -1 7 7 12 8 12 3 0 -11 51 -12 68 -1 8 5 12
-4 12 -28 0 -25 -5 -36 -15 -36 -14 0 -365 136 -374 145 -9 10 18 4 75 -15z
m537 6 c20 -15 23 -28 5 -21 -10 4 -13 -19 -12 -98 0 -57 4 -109 8 -115 8 -13
-3 -16 -19 -4 -10 7 -15 252 -5 252 3 0 13 -7 23 -14z m-1320 -23 c-34 -2 -93
-2 -130 0 -37 2 -9 3 62 3 72 0 102 -1 68 -3z m246 -19 c3 -4 -12 -4 -34 -1
-22 4 -64 7 -92 7 -29 0 -53 4 -53 8 0 9 170 -4 179 -14z m736 -5 c-7 -10 -35
-1 -35 11 0 5 9 6 20 3 11 -3 17 -9 15 -14z m-1392 -6 c-7 -2 -19 -2 -25 0 -7
3 -2 5 12 5 14 0 19 -2 13 -5z m752 -7 c28 -8 43 -15 35 -15 -8 0 -37 6 -65
13 -27 8 -43 15 -35 15 8 0 38 -6 65 -13z m-800 -1 c-23 -9 -209 -45 -212 -41
-7 6 158 44 192 44 17 0 26 -1 20 -3z m-265 -65 c-8 -5 -22 -9 -30 -9 -10 0
-8 3 5 9 27 12 43 12 25 0z m-60 -20 c-8 -5 -19 -10 -25 -10 -5 0 -3 5 5 10 8
5 20 10 25 10 6 0 3 -5 -5 -10z m-43 -16 c-3 -3 -12 -4 -19 -1 -8 3 -5 6 6 6
11 1 17 -2 13 -5z m-47 -14 c-8 -5 -19 -10 -25 -10 -5 0 -3 5 5 10 8 5 20 10
25 10 6 0 3 -5 -5 -10z m4998 -200 c3 -102 0 -150 -7 -150 -6 0 -9 -13 -6 -32
3 -18 2 -27 -1 -19 -5 10 -8 10 -14 2 -4 -7 -17 -13 -28 -14 -45 -3 -19 -77
27 -77 23 0 26 -20 15 -79 -6 -28 -10 -31 -46 -31 l-40 0 7 173 c4 94 10 219
14 277 l6 105 29 -3 c21 -3 26 0 21 10 -7 11 -5 11 6 0 10 -10 15 -51 17 -162z
m-5218 90 c-16 -9 -40 -28 -93 -71 -48 -38 -79 -46 -37 -8 44 38 121 89 134
89 6 0 4 -5 -4 -10z m3958 -82 c11 -13 36 -54 54 -93 32 -67 33 -76 36 -207
l4 -138 -44 0 c-54 0 -84 27 -125 115 -26 55 -28 69 -28 180 0 136 9 165 54
165 16 0 37 -10 49 -22z m-925 -55 c-7 -2 -19 -2 -25 0 -7 3 -2 5 12 5 14 0
19 -2 13 -5z m-636 -105 c-2 -13 -4 -5 -4 17 -1 22 1 32 4 23 2 -10 2 -28 0
-40z m2523 -68 c0 -34 -33 -104 -79 -167 -66 -90 -157 -124 -333 -122 -59 1
-111 -2 -117 -6 -44 -27 50 134 116 200 91 89 179 123 331 124 l82 1 0 -30z
m287 -52 c-3 -8 -6 -5 -6 6 -1 11 2 17 5 13 3 -3 4 -12 1 -19z m-5388 -62 c-2
-2 -17 -6 -34 -10 -22 -5 -26 -4 -15 4 14 9 59 15 49 6z m331 -80 c0 -2 -8
-10 -17 -17 -16 -13 -17 -12 -4 4 13 16 21 21 21 13z m3276 -242 c30 -47 84
-149 119 -227 149 -335 207 -453 235 -480 17 -15 30 -32 30 -38 0 -5 -54 -9
-129 -9 -137 0 -163 8 -121 40 20 15 22 23 16 63 -13 82 -15 83 -222 79 -179
-4 -182 -4 -192 -27 -23 -51 -24 -89 -3 -114 12 -13 21 -28 21 -33 0 -9 -75
-9 -189 1 l-75 6 32 36 c18 20 32 40 32 45 0 16 186 404 263 549 95 180 105
195 117 195 6 0 35 -39 66 -86z m2122 -119 c-3 -64 -2 -64 -47 -6 -17 23 -26
25 -105 26 l-86 1 0 -282 0 -283 32 -36 c43 -49 31 -55 -114 -55 -124 0 -149
9 -110 41 12 9 26 29 32 44 6 15 10 140 10 301 l0 274 -95 0 -95 0 -17 -35
c-25 -53 -47 -47 -39 11 3 26 6 77 6 115 l0 67 38 -11 c23 -7 133 -11 289 -12
230 0 254 2 270 18 17 17 18 15 26 -50 4 -37 6 -95 5 -128z m-6203 171 c162
-2 209 -6 250 -20 101 -37 162 -102 185 -198 28 -115 -17 -215 -129 -289 -23
-14 -23 -17 -11 -55 17 -55 155 -319 196 -377 19 -26 34 -52 34 -57 0 -16
-109 -11 -147 7 -44 20 -81 71 -143 193 -26 52 -60 118 -74 145 -13 28 -30 63
-35 78 -11 28 -12 28 -81 25 l-70 -3 0 -72 c0 -78 11 -117 42 -150 19 -21 19
-21 1 -27 -30 -10 -243 -4 -250 7 -3 5 6 20 20 33 35 32 41 115 33 433 l-7
256 -35 33 c-37 35 -37 56 -1 46 13 -3 113 -6 222 -8z m5028 -319 c93 -97 173
-177 178 -177 15 0 12 427 -3 440 -7 5 -24 19 -38 30 l-25 19 143 1 c79 0 142
-4 142 -9 0 -5 -12 -18 -26 -28 -18 -13 -29 -33 -34 -64 -13 -71 -12 -629 1
-667 6 -18 10 -35 8 -37 -2 -2 -25 -1 -51 2 -46 5 -49 8 -251 227 -112 121
-220 239 -240 261 l-36 40 -3 -170 c-5 -301 -6 -284 25 -311 15 -12 27 -28 27
-34 0 -6 -46 -10 -130 -10 -71 0 -130 3 -130 6 0 4 14 22 30 41 l30 34 0 329
0 329 -37 30 c-42 35 -37 39 47 43 l55 3 75 -75 c41 -42 151 -155 243 -253z
m-3778 243 c3 -41 8 -87 10 -102 6 -36 -4 -35 -40 2 l-29 30 -167 0 -166 0 -7
-31 c-3 -17 -6 -60 -6 -94 l0 -63 128 -5 127 -5 27 29 c15 16 30 29 33 29 3 0
4 -55 3 -122 -2 -86 -7 -123 -15 -126 -7 -2 -13 3 -13 11 0 39 -27 47 -162 47
l-130 0 4 -92 5 -93 154 -3 c185 -4 216 1 231 34 24 51 35 27 35 -73 l-1 -98
-165 0 c-351 1 -461 5 -461 16 0 7 11 22 25 35 l25 23 0 321 c0 201 -4 329
-10 341 -6 10 -24 26 -40 34 -17 9 -30 19 -30 23 0 4 141 7 314 7 l315 0 6
-75z m392 45 c9 -16 35 -57 58 -90 23 -33 88 -126 144 -207 92 -133 121 -166
121 -139 0 13 114 195 213 339 l88 129 95 2 c62 1 94 -2 94 -9 0 -6 -16 -26
-35 -45 l-36 -33 3 -325 3 -326 29 -30 c16 -17 27 -34 23 -37 -8 -8 -267 7
-267 16 0 4 11 12 25 18 19 9 25 19 25 44 0 18 3 93 6 167 3 73 3 157 -1 187
l-6 53 -44 -62 c-47 -66 -100 -149 -183 -287 -28 -47 -55 -85 -61 -85 -6 0
-65 92 -132 205 -66 113 -125 209 -130 215 -5 5 -9 -73 -9 -200 l0 -209 27
-28 c23 -25 24 -28 9 -34 -21 -8 -225 2 -235 11 -3 4 6 17 22 30 l27 24 7 308
c3 170 3 325 -1 345 -5 26 -15 42 -36 55 -16 9 -27 19 -25 22 2 3 40 6 85 6
81 0 82 0 97 -30z m1246 -92 c67 -71 178 -183 247 -250 l125 -121 3 205 c3
223 -1 241 -54 265 -13 6 -24 14 -24 17 0 4 65 7 145 6 80 0 145 -2 145 -6 0
-3 -16 -20 -35 -39 l-35 -34 0 -366 0 -367 -32 5 c-27 3 -68 40 -231 205 -110
111 -221 228 -247 259 l-48 57 -7 -126 c-4 -69 -5 -170 -3 -225 5 -90 7 -101
32 -127 14 -15 23 -30 19 -34 -9 -10 -241 -9 -247 1 -3 5 8 22 24 37 l30 29 0
333 0 334 -25 24 c-13 14 -29 25 -35 25 -6 0 -8 5 -5 10 3 6 35 10 71 10 l65
0 122 -127z m-116 -940 c74 -157 79 -173 62 -184 -27 -17 -50 -9 -60 21 -11
29 -12 30 -79 30 -67 0 -69 0 -72 -27 -3 -25 -7 -28 -33 -25 -16 2 -32 6 -34
8 -4 4 33 93 98 237 17 37 37 67 45 67 7 0 40 -57 73 -127z m923 102 c14 -7
34 -23 45 -35 16 -18 17 -23 5 -30 -20 -13 -57 -12 -65 0 -3 6 -21 10 -40 10
-45 0 -95 -42 -95 -80 0 -48 94 -110 123 -81 20 20 87 11 87 -13 0 -20 -74
-56 -114 -56 -75 0 -145 61 -153 133 -6 53 13 95 60 131 61 47 88 51 147 21z
m740 -124 c0 -75 -4 -142 -9 -149 -15 -24 -59 -2 -100 52 -22 28 -52 62 -66
76 l-25 23 0 -86 c0 -95 -10 -107 -51 -66 -20 20 -21 29 -15 97 3 41 6 101 6
134 0 46 3 58 15 58 9 0 50 -36 92 -80 42 -44 80 -80 84 -80 5 0 9 37 9 83 l0
84 30 -5 30 -4 0 -137z m233 137 l97 1 0 -34 c0 -33 -1 -34 -47 -37 l-48 -3
-3 -112 c-3 -112 -3 -113 -27 -113 -20 0 -25 6 -31 36 -4 20 -4 72 -1 115 l6
79 -44 0 -45 0 0 41 c0 37 2 40 23 33 12 -4 66 -7 120 -6z m395 -34 l-3 -29
-78 4 -78 3 3 -33 3 -34 55 0 c53 0 55 -1 58 -28 l4 -29 -56 4 -56 3 0 -34 0
-33 70 7 70 7 0 -36 0 -36 -100 0 -100 0 0 150 0 150 90 -2 c49 -1 93 1 97 5
12 13 25 -10 21 -39z m-4221 11 c48 -29 49 -31 26 -57 -19 -22 -41 -23 -67 -3
-39 30 -90 15 -115 -33 -18 -33 -7 -65 34 -101 42 -36 54 -38 88 -11 32 25 44
25 57 -1 16 -28 -8 -54 -64 -68 -50 -12 -80 -6 -122 25 -89 66 -82 184 14 249
47 32 94 32 149 0z m190 -24 c-8 -67 6 -83 63 -79 l45 3 9 57 c7 43 14 59 28
64 11 3 21 4 23 2 1 -1 5 -72 7 -155 l4 -153 -28 0 -28 0 0 71 c0 61 -2 70
-16 65 -9 -3 -36 -6 -60 -6 l-44 0 0 -70 0 -70 -27 6 c-16 4 -30 9 -33 11 -9
8 -12 154 -5 229 l7 74 30 0 31 0 -6 -49z m937 23 c44 -45 36 -56 -40 -52 -41
2 -68 -1 -71 -8 -2 -5 23 -21 54 -34 32 -12 66 -30 76 -38 27 -24 22 -76 -12
-114 -40 -45 -100 -46 -154 -5 -43 33 -46 43 -12 59 19 9 29 7 50 -6 31 -20
79 -18 83 5 2 10 -12 22 -40 34 -101 44 -127 82 -92 135 27 40 45 50 90 50 31
0 48 -6 68 -26z m336 -9 c0 -34 -1 -35 -40 -35 -49 0 -53 -10 -48 -144 2 -77
0 -95 -10 -91 -8 3 -22 5 -33 5 -18 0 -19 8 -19 115 l0 115 -46 0 c-44 0 -45
1 -42 28 l3 27 105 6 c58 3 111 6 118 7 7 1 12 -11 12 -33z m754 -57 l86 -92
0 92 c0 91 0 92 24 92 23 0 24 -3 31 -95 8 -97 4 -200 -8 -211 -12 -12 -54 24
-118 100 -35 41 -66 75 -69 75 -3 1 -5 -36 -5 -82 l0 -82 -30 0 -30 0 0 147
c0 130 2 148 16 148 9 0 55 -41 103 -92z m1004 60 l-3 -33 -77 -3 c-75 -3 -78
-4 -78 -27 0 -24 3 -25 59 -25 52 0 61 -3 66 -21 10 -30 -3 -38 -70 -41 -52
-3 -60 -6 -60 -23 0 -18 10 -21 88 -29 l87 -8 0 -29 0 -29 -115 0 -115 0 0
145 0 144 78 4 c42 1 92 4 110 5 32 2 33 1 30 -30z m1201 22 c60 0 65 -2 102
-39 51 -50 52 -82 3 -126 l-36 -33 31 -43 c20 -26 28 -46 22 -52 -15 -15 -65
7 -79 36 -11 23 -57 57 -77 57 -3 0 -5 -22 -5 -50 0 -47 -2 -50 -25 -50 -14 0
-27 6 -30 13 -2 6 -5 76 -7 155 -3 140 -3 143 17 138 11 -3 49 -6 84 -6z
m-3768 -16 c29 -14 59 -65 59 -98 0 -9 -16 -30 -35 -47 -19 -18 -35 -35 -35
-39 0 -3 16 -25 35 -47 19 -23 35 -44 35 -47 0 -3 -13 -6 -30 -6 -23 0 -35 8
-54 38 -13 20 -38 45 -55 55 l-31 18 0 -60 c0 -54 -2 -61 -19 -61 -40 0 -47
22 -44 126 2 55 3 118 3 142 l0 42 70 0 c45 0 82 -6 101 -16z m213 -76 c3 -50
6 -115 6 -145 0 -52 0 -53 -30 -53 l-30 0 0 145 0 145 24 0 c22 0 23 -4 30
-92z m746 30 c0 -35 3 -100 7 -145 l6 -83 -32 0 -31 0 0 145 0 145 25 0 c24 0
25 -3 25 -62z m3535 -93 l0 -30 -89 -7 c-49 -4 -139 -4 -200 0 l-111 7 -3 27
-3 28 183 3 c101 1 192 3 203 2 15 0 20 -7 20 -30z m-5675 -4 c0 -17 -6 -31
-16 -35 -21 -8 -288 -8 -337 1 -40 6 -54 22 -43 48 4 13 36 15 201 15 l195 0
0 -29z m158 -351 c36 -22 39 -32 16 -51 -12 -10 -20 -10 -35 -1 -27 17 -52 15
-77 -8 -29 -27 -28 -65 3 -95 28 -29 38 -31 55 -10 16 19 29 19 52 -2 27 -25
22 -36 -26 -56 -39 -16 -48 -17 -78 -4 -49 20 -88 71 -88 113 0 43 22 78 69
110 43 29 66 30 109 4z m160 -32 c3 -45 5 -48 37 -54 36 -6 66 0 64 13 -1 4
-1 27 0 51 1 34 5 42 20 42 22 0 31 -40 31 -152 0 -89 -5 -108 -30 -108 -23 0
-32 24 -24 66 l6 34 -51 0 -51 0 0 -50 c0 -47 -2 -50 -25 -50 l-25 0 0 123 c0
68 3 127 7 131 4 4 14 5 23 4 10 -2 16 -17 18 -50z m2137 -91 c4 -53 4 -100 1
-105 -3 -5 -17 -7 -30 -5 -21 4 -25 12 -31 54 -11 76 3 187 23 191 22 5 28
-17 37 -135z m1479 130 c16 -12 18 -25 15 -96 -4 -81 -5 -84 -41 -117 -42 -38
-80 -44 -128 -19 -43 22 -50 43 -50 144 0 89 0 91 24 91 30 0 36 -16 36 -95 0
-80 6 -95 37 -95 55 0 63 14 63 104 0 99 6 111 44 83z m914 -21 c11 -11 16
-31 14 -60 -1 -29 4 -48 13 -56 23 -19 18 -54 -10 -80 -21 -20 -39 -25 -95
-28 l-70 -4 0 84 c0 47 -3 105 -6 130 l-6 44 72 -7 c46 -4 77 -12 88 -23z
m-4244 8 c3 -9 6 -35 6 -58 0 -57 17 -104 41 -111 38 -12 49 11 49 101 0 83 0
84 25 84 25 0 25 0 25 -93 0 -103 -9 -126 -59 -147 -23 -9 -38 -9 -66 0 -50
17 -65 51 -65 155 0 77 2 85 19 85 10 0 22 -7 25 -16z m389 -24 c33 -37 34
-61 3 -97 l-24 -28 34 -41 c29 -36 31 -42 16 -46 -30 -8 -58 8 -80 46 -29 50
-50 47 -54 -6 -2 -35 -7 -43 -23 -43 -19 0 -20 8 -25 129 l-5 128 65 -6 c55
-5 69 -11 93 -36z m274 19 c7 -6 13 -23 13 -36 0 -24 -2 -25 -45 -19 -59 9
-80 2 -95 -34 -10 -25 -10 -34 4 -56 16 -23 22 -25 79 -22 55 3 62 1 62 -16 0
-22 -57 -56 -94 -56 -15 0 -40 16 -67 44 -35 35 -44 50 -44 78 0 93 123 170
187 117z m151 -34 l3 -50 44 3 45 4 0 49 c0 47 1 49 28 49 l27 0 -3 -126 c-3
-108 -5 -125 -18 -120 -9 3 -20 6 -25 6 -5 0 -9 23 -9 51 l0 50 -47 -3 -48 -3
-3 -53 c-3 -48 -5 -53 -25 -50 -21 3 -22 8 -25 112 -1 61 0 116 3 124 3 7 15
12 27 10 20 -3 23 -10 26 -53z m515 -42 c25 -54 49 -110 52 -125 7 -26 5 -28
-23 -28 -24 0 -31 5 -34 23 -3 19 -10 22 -54 25 -48 3 -52 1 -58 -23 -5 -18
-13 -25 -31 -25 -33 0 -33 25 -1 88 13 26 30 67 37 92 29 103 53 97 112 -27z
m255 81 c12 -8 22 -21 22 -29 0 -19 -35 -28 -60 -15 -20 11 -40 6 -40 -10 0
-4 23 -24 50 -44 59 -42 63 -65 20 -108 -27 -26 -36 -30 -67 -25 -38 7 -76 34
-70 51 2 6 25 11 52 11 60 0 68 17 16 37 -51 21 -77 58 -61 90 29 55 92 74
138 42z m526 0 c9 -25 -12 -44 -50 -44 -42 0 -53 -17 -18 -30 26 -10 27 -12
21 -76 -7 -77 -11 -84 -41 -84 -21 0 -24 6 -29 65 -8 79 -17 99 -57 115 -23 9
-30 18 -28 34 4 25 34 33 129 35 53 1 68 -2 73 -15z m301 4 c27 -12 34 -43 11
-51 -8 -3 -30 -3 -49 0 -53 8 -52 -12 3 -47 89 -57 96 -89 30 -128 -48 -27
-70 -28 -104 -1 -53 42 -25 62 62 43 35 -7 26 13 -20 43 -76 47 -85 77 -39
124 32 31 64 36 106 17z m155 -38 l0 -50 51 0 51 0 -4 43 c-3 41 -2 42 28 45
l32 3 -2 -115 -1 -116 -36 0 -37 0 9 37 c4 21 4 42 0 46 -12 12 -96 4 -94 -8
1 -5 4 -27 8 -48 7 -38 7 -39 -21 -35 l-29 3 -3 109 c-3 124 -1 136 28 136 17
0 20 -6 20 -50z m442 7 c53 -59 46 -124 -17 -172 -70 -54 -156 -29 -185 53
-24 69 6 115 96 147 49 18 72 12 106 -28z m468 -24 c0 -101 5 -113 49 -114 55
-2 86 -13 89 -33 7 -33 -12 -39 -97 -31 l-81 7 0 112 c0 114 3 126 27 126 9 0
13 -18 13 -67z m342 44 c23 -14 28 -33 31 -116 2 -57 0 -65 -23 -81 -15 -11
-50 -20 -88 -23 l-63 -5 7 116 c4 66 12 120 18 125 14 10 93 -1 118 -16z m686
1 c-3 -20 -10 -23 -50 -26 -40 -3 -48 -6 -48 -23 0 -16 7 -19 45 -19 41 0 45
-2 45 -25 0 -23 -4 -25 -46 -25 -38 0 -45 -3 -42 -17 3 -15 14 -18 61 -17 l57
1 0 -36 0 -36 -88 -2 -87 -1 1 116 c1 65 2 120 3 125 0 4 35 7 77 7 72 0 75
-1 72 -22z m-606 -396 c-27 -9 -10 -24 19 -18 l32 6 -25 -32 c-32 -41 -42 -44
-56 -16 -7 15 -11 18 -11 8 -1 -9 4 -21 11 -28 6 -6 10 -13 7 -16 -2 -2 -40
-29 -84 -60 -44 -30 -84 -59 -90 -64 -70 -55 -363 -207 -505 -262 -154 -59
-189 -72 -202 -74 -7 -2 -39 -11 -71 -20 -32 -10 -61 -15 -64 -12 -4 3 1 6 9
6 11 0 14 6 11 20 -3 12 -2 20 3 19 5 -1 16 0 24 1 34 4 -39 17 -87 14 -74 -3
-58 11 34 30 138 29 213 50 213 58 0 4 5 8 10 8 19 0 10 -16 -19 -33 -16 -9
-44 -17 -63 -18 l-33 -1 40 -9 c32 -8 42 -7 51 6 6 8 19 15 28 15 9 0 16 5 16
11 0 5 8 9 18 8 38 -3 45 3 17 15 -27 12 -28 14 -10 21 11 4 50 21 87 36 36
16 69 29 73 29 3 0 42 18 86 40 45 22 85 38 90 34 5 -3 9 -1 9 5 0 15 169 113
182 105 7 -5 8 -2 3 6 -6 10 -4 12 9 7 9 -4 15 -3 12 2 -3 5 24 28 61 52 37
24 90 64 117 88 34 30 51 40 55 30 2 -7 -1 -15 -7 -17z m-3587 -61 c116 -89
203 -150 261 -181 32 -17 62 -38 67 -46 5 -8 12 -12 17 -9 12 7 150 -55 150
-67 0 -6 -11 -7 -25 -4 -20 5 -23 3 -18 -11 3 -10 15 -26 27 -35 18 -15 19
-18 4 -18 -10 0 -18 5 -18 11 0 5 -3 8 -8 5 -4 -2 -25 4 -46 14 -21 9 -35 20
-30 22 5 3 3 3 -5 1 -21 -5 -125 46 -140 68 -7 12 -8 18 -3 15 13 -8 44 22 37
35 -4 5 -13 9 -21 9 -8 0 -14 5 -14 11 0 5 -4 8 -9 4 -5 -3 -12 -1 -16 5 -7
11 -58 14 -69 3 -14 -15 -50 -13 -68 4 -11 9 -50 38 -88 63 -65 43 -140 119
-140 143 0 6 3 8 6 5 3 -3 17 -3 32 1 36 10 46 6 117 -48z m535 -321 c12 -8
11 -10 -7 -10 -13 0 -23 5 -23 10 0 13 11 13 30 0z m105 -38 c17 -9 33 -15 38
-14 4 1 7 -1 7 -5 0 -5 -28 -9 -61 -10 -34 -2 -59 0 -56 3 3 3 2 17 -3 30 -9
23 -8 24 18 18 15 -4 41 -14 57 -22z m-55 -52 c8 -5 11 -10 5 -10 -5 0 -17 5
-25 10 -8 5 -10 10 -5 10 6 0 17 -5 25 -10z m194 -2 c-4 -6 -3 -8 3 -5 6 4 24
4 40 1 25 -5 29 -10 25 -29 -5 -28 -19 -35 -55 -28 -23 5 -27 10 -27 39 0 19
5 34 11 34 5 0 7 -5 3 -12z m111 -28 c3 -6 -1 -7 -9 -4 -18 7 -21 14 -7 14 6
0 13 -4 16 -10z m1535 -30 c-8 -5 -22 -9 -30 -9 -10 0 -8 3 5 9 27 12 43 12
25 0z m-1279 -15 c13 -3 38 -9 54 -14 27 -8 28 -9 10 -17 -25 -10 -45 -29 -45
-43 0 -7 -10 -9 -26 -5 -21 5 -25 4 -19 -6 10 -16 -58 -7 -120 15 -22 8 -48
14 -58 15 -10 0 -15 5 -12 10 4 7 12 7 25 0 36 -19 67 -12 76 18 4 15 6 31 5
36 -2 7 40 4 110 -9z m1204 -6 c-4 -6 -20 -8 -38 -4 -24 5 -28 4 -17 -4 8 -6
23 -11 33 -11 9 0 17 -7 17 -16 0 -10 -6 -14 -15 -10 -15 5 -22 -9 -7 -17 4
-2 1 -2 -6 0 -8 1 -22 3 -33 3 -12 0 -19 7 -19 19 0 22 -22 33 -47 24 -10 -3
-15 -3 -11 2 18 19 154 33 143 14z m-1460 -29 c3 -6 -1 -7 -9 -4 -18 7 -21 14
-7 14 6 0 13 -4 16 -10z"/>
<path d="M3894 6921 c-11 -5 -33 -23 -47 -41 -21 -25 -27 -42 -27 -81 0 -89
50 -149 124 -149 71 0 116 51 116 130 0 96 -91 173 -166 141z"/>
<path d="M6244 6310 c-28 -11 -62 -59 -65 -91 -4 -47 1 -68 27 -98 72 -86 194
-39 194 74 0 92 -75 148 -156 115z"/>
<path d="M4675 5810 c-3 -5 1 -10 10 -10 9 0 13 5 10 10 -3 6 -8 10 -10 10 -2
0 -7 -4 -10 -10z"/>
<path d="M5005 5640 c3 -5 8 -10 11 -10 2 0 4 5 4 10 0 6 -5 10 -11 10 -5 0
-7 -4 -4 -10z"/>
<path d="M6248 4272 c-15 -32 -44 -86 -64 -122 l-36 -65 99 -7 c54 -4 110 -4
125 0 l27 7 -50 110 c-28 61 -56 115 -62 122 -9 9 -18 -2 -39 -45z"/>
<path d="M2240 4285 l0 -147 103 4 c115 4 144 15 177 71 35 57 20 136 -34 187
-25 23 -37 25 -137 28 l-109 4 0 -147z"/>
<path d="M4947 3493 c-3 -16 -9 -36 -12 -45 -6 -15 -1 -18 29 -18 22 0 36 5
36 13 0 12 -36 77 -44 77 -2 0 -6 -12 -9 -27z"/>
<path d="M7480 3527 c0 -52 61 -81 100 -49 18 14 21 25 16 45 -6 25 -10 27
-61 27 -51 0 -55 -2 -55 -23z"/>
<path d="M3648 3536 c-15 -35 -5 -53 34 -59 42 -6 68 8 68 36 0 32 -18 47 -57
47 -26 0 -36 -6 -45 -24z"/>
<path d="M7325 3050 c-11 -17 5 -30 36 -30 33 0 38 14 10 30 -25 13 -38 13
-46 0z"/>
<path d="M7343 2963 c-24 -9 -14 -41 14 -47 29 -8 57 11 45 30 -9 14 -43 24
-59 17z"/>
<path d="M3477 3043 c-4 -3 -7 -18 -7 -33 0 -24 3 -26 31 -22 35 5 47 25 29
47 -13 16 -42 20 -53 8z"/>
<path d="M4436 2992 l-17 -32 26 0 c26 0 29 10 16 45 -7 18 -9 17 -25 -13z"/>
<path d="M6054 3015 c-22 -34 -12 -69 26 -85 38 -16 55 -9 75 30 15 29 15 34
0 56 -22 34 -78 34 -101 -1z"/>
<path d="M6914 3036 c-3 -7 -4 -33 -2 -57 3 -37 7 -45 26 -47 37 -5 72 24 72
59 0 25 -6 32 -35 45 -43 18 -54 18 -61 0z"/>
<path d="M6900 2510 c-9 -6 -10 -10 -3 -10 6 0 15 5 18 10 8 12 4 12 -15 0z"/>
<path d="M6534 2304 c-19 -15 -19 -15 1 -6 11 5 27 12 35 15 13 5 13 6 -1 6
-8 1 -24 -6 -35 -15z"/>
<path d="M6128 2143 c7 -3 16 -2 19 1 4 3 -2 6 -13 5 -11 0 -14 -3 -6 -6z"/>
<path d="M3787 2386 c4 -19 13 -25 44 -30 22 -4 48 -2 57 3 14 9 11 10 -14 11
-17 0 -41 9 -54 20 -30 26 -38 25 -33 -4z"/>
<path d="M4575 2070 c-3 -5 -2 -10 4 -10 5 0 13 5 16 10 3 6 2 10 -4 10 -5 0
-13 -4 -16 -10z"/>
</g>
</svg>
